<svg width="1329" height="852" viewBox="0 0 1329 852" fill="none" xmlns="http://www.w3.org/2000/svg">
<g opacity="0.1">
<circle cx="1048" cy="203" r="2" fill="#D9D9D9"/>
<circle cx="1160" cy="315" r="2" fill="#D9D9D9"/>
<circle cx="768" cy="387" r="2" fill="#D9D9D9"/>
<circle cx="696" cy="675" r="2" fill="#D9D9D9"/>
<circle cx="1327" cy="723" r="2" fill="#D9D9D9"/>
<circle cx="1176.57" cy="15.7321" r="2" transform="rotate(30 1176.57 15.7321)" fill="#D9D9D9"/>
<circle cx="1217.57" cy="168.727" r="2" transform="rotate(30 1217.57 168.727)" fill="#D9D9D9"/>
<circle cx="842.086" cy="35.0807" r="2" transform="rotate(30 842.086 35.0807)" fill="#D9D9D9"/>
<circle cx="635.732" cy="248.496" r="2" transform="rotate(30 635.732 248.496)" fill="#D9D9D9"/>
<circle cx="761.434" cy="542.773" r="2" transform="rotate(30 761.434 542.773)" fill="#D9D9D9"/>
<circle cx="1158.19" cy="605.565" r="2" transform="rotate(30 1158.19 605.565)" fill="#D9D9D9"/>
</g>
<g opacity="0.1">
<circle cx="415" cy="190" r="2" fill="#D9D9D9"/>
<circle cx="527" cy="302" r="2" fill="#D9D9D9"/>
<circle cx="135" cy="374" r="2" fill="#D9D9D9"/>
<circle cx="63" cy="662" r="2" fill="#D9D9D9"/>
<circle cx="694" cy="710" r="2" fill="#D9D9D9"/>
<circle cx="543.573" cy="2.73205" r="2" transform="rotate(30 543.573 2.73205)" fill="#D9D9D9"/>
<circle cx="584.568" cy="155.727" r="2" transform="rotate(30 584.568 155.727)" fill="#D9D9D9"/>
<circle cx="209.086" cy="22.0807" r="2" transform="rotate(30 209.086 22.0807)" fill="#D9D9D9"/>
<circle cx="2.73205" cy="235.496" r="2" transform="rotate(30 2.73205 235.496)" fill="#D9D9D9"/>
<circle cx="128.434" cy="529.773" r="2" transform="rotate(30 128.434 529.773)" fill="#D9D9D9"/>
<circle cx="525.194" cy="592.565" r="2" transform="rotate(30 525.194 592.565)" fill="#D9D9D9"/>
</g>
</svg>
